<?xml version="1.0" encoding="UTF-8"?>
<svg version="1.1" xmlns="http://www.w3.org/2000/svg" width="200" height="200">
<path d="M0 0 C66 0 132 0 200 0 C200 66 200 132 200 200 C134 200 68 200 0 200 C0 134 0 68 0 0 Z " fill="#000000" transform="translate(0,0)"/>
<path d="M0 0 C0.92490234 -0.01224609 1.84980469 -0.02449219 2.80273438 -0.03710938 C12.79171295 -0.05810933 24.39925015 1.03909104 32.125 8.0625 C33.47473294 11.12189467 33.57565285 12.85200645 33.0625 16.1875 C30.16345887 22.93792427 24.90469352 27.90817961 19.0625 32.1875 C18.04800781 32.58042236 17.03351563 32.97334473 15.98828125 33.37817383 C12.20061113 34.88852476 9.8775325 36.20765107 7.0625 39.1875 C4.99045112 45.71938743 5.8403892 53.06266346 6.125 59.8125 C6.20663816 62.63876976 6.27081154 65.46339967 6.30723572 68.2906189 C6.33362593 70.04424781 6.38786825 71.79774052 6.47364807 73.54946899 C6.57065123 77.60395044 6.47640327 79.58449297 4.13183594 83.00024414 C0.18049617 85.81602946 -3.83925556 87.60296333 -8.33203125 89.39453125 C-9.23821701 89.76478928 -10.14440277 90.1350473 -11.07804871 90.51652527 C-12.98933372 91.29330305 -14.90324903 92.0636365 -16.81958008 92.82788086 C-19.73776021 93.99510429 -22.64331583 95.19031712 -25.54882812 96.38867188 C-27.41336952 97.14234168 -29.27858331 97.89435058 -31.14453125 98.64453125 C-32.00625443 99.00070023 -32.8679776 99.3568692 -33.7558136 99.72383118 C-40.08046491 102.21196455 -45.3383346 103.62257298 -51.921875 100.99755859 C-52.83453125 100.44922363 -53.7471875 99.90088867 -54.6875 99.3359375 C-55.7084375 98.73136719 -56.729375 98.12679687 -57.78125 97.50390625 C-58.8228125 96.86324219 -59.864375 96.22257812 -60.9375 95.5625 C-62.49984375 94.63630859 -62.49984375 94.63630859 -64.09375 93.69140625 C-79.9363165 84.189867 -79.9363165 84.189867 -81.9375 80.1875 C-82.09394172 77.63643971 -82.19571389 75.10831337 -82.25390625 72.5546875 C-82.27468735 71.80285187 -82.29546844 71.05101624 -82.31687927 70.27639771 C-82.38232705 67.87185915 -82.44123738 65.46721033 -82.5 63.0625 C-82.54318977 61.43358229 -82.58680421 59.80467578 -82.63085938 58.17578125 C-82.73800351 54.17980085 -82.83928433 50.18370941 -82.9375 46.1875 C-83.5975 46.1875 -84.2575 46.1875 -84.9375 46.1875 C-85.2675 50.8075 -85.5975 55.4275 -85.9375 60.1875 C-93.53880683 59.86172971 -99.56749794 58.52377663 -105.9375 54.1875 C-108.02094923 51.81106572 -108.86193979 50.55690547 -109.5 47.4375 C-108.07928853 39.22894485 -100.3007115 32.98523255 -93.9375 28.1875 C-91.58806655 26.58359274 -89.19179139 25.0838996 -86.75 23.625 C-86.16798828 23.26599609 -85.58597656 22.90699219 -84.98632812 22.53710938 C-81.98157844 20.82450461 -80.11809812 20.17873725 -76.63671875 20.34765625 C-73.9375 21.1875 -73.9375 21.1875 -71.9375 23.1875 C-71.5971875 21.82625 -71.5971875 21.82625 -71.25 20.4375 C-69.50918061 16.1268996 -67.20802741 14.20671576 -62.94799805 12.29443359 C-60.52586026 11.37564634 -58.08946893 10.54840722 -55.625 9.75 C-54.7165332 9.4514209 -53.80806641 9.1528418 -52.87207031 8.84521484 C-35.69259971 3.39970184 -18.02848857 0.0125111 0 0 Z " fill="#FDFDFD" transform="translate(137.9375,62.8125)"/>
<path d="M0 0 C5.03346276 0.98092296 9.59747635 3.20960838 14.23632812 5.32763672 C15.2086438 5.76302765 16.18095947 6.19841858 17.18273926 6.64700317 C20.27732082 8.03487066 23.36624157 9.43484902 26.45507812 10.83544922 C28.53152969 11.76986862 30.60834918 12.70347088 32.68554688 13.63623047 C36.50625323 15.3522825 40.32431344 17.07400559 44.140625 18.79980469 C48.05970187 20.56730874 51.99645277 22.28351274 55.95507812 23.96044922 C55.95507812 24.62044922 55.95507812 25.28044922 55.95507812 25.96044922 C55.30772705 26.07525635 54.66037598 26.19006348 53.9934082 26.30834961 C41.22476682 28.61303252 28.88023085 31.23459958 16.68286133 35.72436523 C12.31849454 37.3079354 8.67700213 38.55697843 3.95507812 37.96044922 C1.58007812 35.96044922 1.58007812 35.96044922 -0.04492188 33.96044922 C-0.47804688 35.60013672 -0.47804688 35.60013672 -0.91992188 37.27294922 C-2.04492188 40.96044922 -2.04492188 40.96044922 -4.04492188 43.96044922 C-4.70492187 43.96044922 -5.36492188 43.96044922 -6.04492188 43.96044922 C-6.11902302 38.17637953 -6.17350072 32.39258551 -6.2097168 26.6081543 C-6.22481269 24.64000639 -6.24529136 22.67189216 -6.27124023 20.70385742 C-6.30758836 17.8765431 -6.32464001 15.04967312 -6.33789062 12.22216797 C-6.35337448 11.34082687 -6.36885834 10.45948578 -6.3848114 9.55143738 C-6.38503799 8.73081314 -6.38526459 7.9101889 -6.38549805 7.06469727 C-6.39215988 6.3429985 -6.39882172 5.62129974 -6.40568542 4.87773132 C-5.67184338 0.97771919 -3.80388527 -0.04940903 0 0 Z " fill="#FCFCFC" transform="translate(61.044921875,35.03955078125)"/>
<path d="M0 0 C2.4375 0.375 2.4375 0.375 5 1 C6.70188447 4.40376894 6.18458114 8.18675899 6.1875 11.9375 C6.19974609 12.76185547 6.21199219 13.58621094 6.22460938 14.43554688 C6.22750977 15.62567383 6.22750977 15.62567383 6.23046875 16.83984375 C6.23457764 17.56550537 6.23868652 18.29116699 6.24291992 19.03881836 C6 21 6 21 4 24 C2.125 23.75 2.125 23.75 0 23 C-2.64238276 19.35055528 -2.29660581 15.2524211 -2.25 10.9375 C-2.25773437 10.21755859 -2.26546875 9.49761719 -2.2734375 8.75585938 C-2.25937918 4.97065637 -2.1475969 3.22139535 0 0 Z " fill="#050505" transform="translate(107,101)"/>
<path d="M0 0 C2.5625 0.25 2.5625 0.25 5 1 C6.63405901 4.26811802 6.18453757 7.84999407 6.1875 11.4375 C6.19974609 12.21416016 6.21199219 12.99082031 6.22460938 13.79101562 C6.23474195 17.71232309 6.2225417 19.66618745 4 23 C-0.875 22.125 -0.875 22.125 -2 21 C-2.24966567 17.8617655 -2.18521791 14.70950387 -2.1875 11.5625 C-2.19974609 10.67755859 -2.21199219 9.79261719 -2.22460938 8.88085938 C-2.22654297 8.03458984 -2.22847656 7.18832031 -2.23046875 6.31640625 C-2.23457764 5.53724854 -2.23868652 4.75809082 -2.24291992 3.95532227 C-2 2 -2 2 0 0 Z " fill="#030303" transform="translate(125,97)"/>
</svg>
