<svg width="536px" height="750px" viewBox="0 0 536 750" version="1.1" xmlns="http://www.w3.org/2000/svg" xmlns:xlink="http://www.w3.org/1999/xlink">
    <title>path34</title>
    <g id="Page-1" stroke="none" stroke-width="1" fill="none" fill-rule="evenodd">
        <g id="Group" transform="translate(-232, -125)" fill="#3F6B4A" fill-rule="nonzero">
            <path d="M508.437115,153.564995 L502.785398,166.77413 L505.806208,168.187644 L509.509036,166.189284 L512.919623,163.069773 L511.116916,171.843337 L506.342044,179.788359 L515.014695,175.888969 L514.381072,177.984907 L509.119008,184.955019 L507.852261,186.758596 L508.241416,188.269563 L509.312837,188.415556 L514.623545,185.490951 L517.498173,183.687499 L507.851139,198.456516 L510.628228,198.114617 L514.477363,195.33638 L518.228959,193.142864 L515.939061,200.113101 L511.35914,203.866248 L509.117886,206.547032 L509.556932,207.91188 L511.262225,208.057874 L512.723799,207.034674 L515.354831,204.305101 L517.547316,206.644735 L519.544974,205.864857 L525.732651,201.088011 C536.695201,192.363111 549.704054,186.611605 563.394924,181.981001 L582.201801,178.374097 C593.846368,177.302233 605.442292,177.642884 616.892033,180.226338 C628.828965,182.809669 638.378461,188.902449 646.076605,197.334864 L651.046304,203.330191 L646.271432,201.867889 L642.422422,201.088011 L638.817008,198.212195 L637.940163,201.526739 L630.777979,195.726444 L631.995333,201.526739 L631.995333,201.476827 L628.925879,199.722164 L623.12798,193.873079 L617.329956,192.459566 L624.053593,202.597979 L609.972945,193.093201 L614.260502,200.648284 L599.643769,193.141866 L603.249308,198.406104 L607.293144,203.475311 L603.054356,201.476827 L599.107808,198.747254 L594.91779,196.261377 L590.581464,194.604168 L590.727397,196.602652 L595.502145,200.258345 L598.376772,203.719007 L595.20978,203.475685 L584.393537,199.186356 L580.154625,198.601136 L581.665092,201.91568 L586.586022,206.399915 L580.495758,204.596463 L574.259312,202.256829 L577.621131,207.911007 L575.038868,207.911007 L566.853532,205.863859 L571.384685,211.664154 L568.07151,211.518161 L555.598618,210.93294 L554.478552,211.95614 L555.355397,213.173998 L557.596651,213.856547 L555.891357,215.221395 L547.706021,217.561029 L545.221172,219.851874 C554.673254,218.682681 563.248368,218.145875 571.726068,215.757452 C585.660658,211.955641 600.131209,211.02952 614.747818,211.175763 C623.90766,211.225675 633.018609,211.955641 641.934856,213.759093 C651.484352,215.757452 660.498013,219.023207 668.683348,224.092413 C680.181734,231.06265 690.657092,239.251369 700.304126,248.171176 C708.538106,255.823712 716.528615,263.671281 723.10607,272.542424 L727.393627,278.586415 L724.567768,277.709209 L718.18514,272.737456 L718.18514,272.687543 L715.456695,272.004994 L711.802511,268.154269 L705.761017,264.206215 L707.368772,267.666876 L707.757927,271.420023 L704.347339,268.008026 L696.113359,259.088219 L690.851295,257.089735 L695.52863,265.960878 L690.266691,263.621244 L683.20192,255.091376 L680.083697,251.63059 L677.696385,250.899376 L679.88887,256.163614 L681.740221,261.427728 L678.232221,260.014215 L670.777796,252.556585 L667.172382,249.973255 L669.413511,258.649366 L667.513391,258.161475 L653.724983,245.537185 L652.994071,247.243183 L657.573868,255.821841 L658.596645,259.672566 L651.77547,254.55457 L645.831388,249.72906 L639.205164,244.854885 L638.913298,247.584458 L642.275117,251.483848 L644.224006,258.210264 L635.015519,250.752634 L624.004325,245.390942 L626.440406,250.557727 L629.802225,255.090752 L626.73277,254.748854 L614.990665,247.388802 L611.336482,247.242809 L618.547435,256.503891 L615.477856,256.211905 L602.566542,248.559368 L598.766176,247.730826 L607.633654,257.4793 L604.953853,256.942744 L597.255833,253.28705 L586.098457,249.972507 L582.492918,251.629716 L591.116801,254.456867 L598.230216,259.574738 L595.453126,259.282752 C589.21668,256.016997 582.005727,255.675723 575.087138,254.554695 L573.430613,255.7738 L574.258813,256.942993 L576.548712,257.917529 L581.420998,258.648742 L586.341928,259.282627 L588.924191,260.647351 L583.077522,262.35335 L566.901678,261.378814 L564.368184,261.622136 L566.853034,263.279346 L571.773964,263.619996 L582.93134,264.302545 L586.731706,264.302545 L600.373932,263.619996 L612.798055,263.034776 L619.667875,262.840118 C634.041012,263.376674 648.316612,263.863318 662.39726,266.885751 C670.777547,268.689203 678.719287,271.028837 686.709671,273.807199 C703.47012,279.704947 718.574045,288.332394 732.021319,298.9582 C747.368839,311.143886 757.015873,326.497624 762.423995,344.142455 L765.298622,354.378322 L767.29628,368.854853 C767.346172,375.824965 768.563027,382.892656 767.346172,389.911557 L766.957018,392.98228 L766.128818,384.013684 L764.423524,376.019872 L762.815643,377.287268 L763.497911,381.089079 L763.303333,384.744772 L761.305675,383.672908 L760.477475,370.366194 L756.189918,359.447903 L755.167141,358.911347 L754.729342,358.961259 L757.555201,374.558818 L752.97528,367.29622 L752.438945,361.690832 L749.856682,347.994179 L745.86149,340.097946 L746.932912,348.57915 L747.51789,356.377929 L744.448436,353.74581 L742.402134,347.360544 L735.093767,330.836864 L733.778251,329.959658 L735.629727,346.727033 L732.413966,340.877949 L725.982693,324.695419 L721.305359,318.846335 L718.869278,316.945429 L723.595257,330.983232 L720.915581,330.15469 L716.189477,322.404699 L711.658325,313.192407 L708.345275,310.072895 L708.685785,321.576032 L703.228895,312.266286 L696.164124,304.028779 L696.114232,308.025747 L699.281099,315.726948 L698.744765,318.944038 L692.313368,310.803984 L683.15365,300.275632 L681.594538,299.495754 L681.935048,302.566601 L684.907089,308.610593 L684.468043,315.190766 L672.04392,298.277273 L670.87521,300.909267 L673.01905,307.830715 L672.336783,313.387314 L669.169791,307.294533 L665.223368,301.006845 L660.789629,295.84006 L660.20465,299.447089 L664.151198,309.341682 L664.250981,312.071254 L661.863545,310.755319 L659.232638,307.002048 L649.683017,296.181335 L647.100754,294.91394 L647.200537,297.887334 L653.33957,308.561804 L651.147085,308.221153 L641.938598,298.42389 L637.45609,294.622078 L634.776414,294.572166 L640.623082,304.613126 L634.094272,301.39616 L626.444896,296.619314 L624.203642,295.742108 L622.595886,296.229999 L622.645778,297.692302 L626.007597,300.178178 L628.83358,303.151447 L626.446143,302.762132 L621.622626,299.350135 L616.019554,297.205533 L616.069445,299.69141 L625.083106,304.370677 C632.245165,306.12534 639.358705,308.221278 646.423351,310.317215 C659.6758,314.314058 672.294874,319.72454 684.329344,326.061017 L700.115287,335.955734 C707.374884,341.463543 714.293473,347.410206 721.065879,353.405409 C733.05158,364.3237 741.480511,377.289264 747.32718,391.570763 C750.055625,398.297179 750.396634,405.36487 750.932594,412.432436 C752.004016,428.90745 748.788753,445.041066 744.355139,460.93111 C742.162529,468.876132 739.677804,476.723701 737.339137,484.619934 L731.589882,496.415556 L734.902932,484.912419 L737.874973,470.777038 L736.510812,468.778679 L735.097883,476.090066 L731.297517,482.816482 L729.982001,481.354179 L733.490002,469.509767 L737.533964,450.549001 L736.218448,447.819428 L734.220914,451.231425 L731.102691,463.660683 L728.130525,465.464135 L727.887304,462.880805 L728.958725,459.127658 C732.174362,451.28009 732.417957,443.091371 733.1001,434.902653 L732.61241,431.637023 L731.686921,431.197796 L730.6155,431.587111 L729.592723,435.778986 L727.400237,447.818305 L724.769206,452.887512 L723.258863,453.862047 L722.430663,452.399745 L723.161574,448.012963 C726.572037,438.898124 726.71822,429.393346 726.572037,419.937357 L725.841126,416.769056 L724.379428,416.086507 L723.259362,417.061042 L723.309254,426.614485 L719.849897,437.581565 L718.193372,438.995078 L717.219239,436.89914 L718.534755,431.537448 L719.460244,418.961948 L719.119734,415.59874 C718.876512,408.823535 718.680688,407.751171 715.514319,400.439909 L713.85767,404.095478 L715.124542,409.554624 L713.467892,419.15698 L712.006318,419.790865 L710.495851,416.427657 L709.862228,408.628877 L709.082672,398.100525 L702.94364,385.817385 L702.94364,388.400715 L705.038711,396.004588 L702.94364,405.363123 L701.628124,403.462092 C700.702635,396.540769 699.922955,389.473079 698.899678,382.454177 L693.004366,369.781098 C693.978499,378.359756 696.999558,385.671143 693.443412,393.469922 L691.543291,391.812713 L690.276544,387.474595 L687.353148,373.241885 L678.534439,358.716689 L678.145284,360.178867 L680.971143,366.41789 L682.530254,378.164849 L680.678903,382.259145 L679.217205,380.991875 L676.878538,374.070427 L672.347385,359.106628 L663.236311,348.285791 L662.797266,350.332939 L666.354036,355.499599 L669.228663,366.369226 L663.771773,362.518501 L660.848376,356.377056 L654.758112,345.458765 L651.688658,342.144221 L656.073628,357.205598 L649.301222,352.867605 L644.477705,344.386401 L637.705299,336.831318 L641.115886,350.28415 L638.241259,349.01688 L631.663804,338.29362 L628.935359,335.271562 L626.450509,335.417555 L627.717256,338.97567 C632.053582,345.945908 637.023281,352.331174 643.746918,357.838984 C660.312416,371.779333 673.954642,387.620588 683.455494,406.093962 L690.471496,422.715095 L690.666073,423.251651 C690.715964,430.465584 692.809789,437.53315 691.834783,444.893326 C690.714717,453.423194 689.106338,461.80682 686.913853,470.141781 C683.941812,481.645042 678.436152,492.270848 671.712515,502.311808 L659.239623,518.34797 L648.082246,530.874806 L650.566971,522.637298 L658.703662,507.575921 L662.650086,498.802357 L663.672863,493.879393 L661.334195,496.072784 L648.861303,515.862218 L647.302191,516.982747 L647.010326,513.375842 L654.123741,500.410278 L658.411298,493.635198 L660.457601,479.158667 L659.044671,480.377772 L656.998369,487.98152 L647.59493,500.020838 L646.620797,500.020838 L646.864019,496.852662 L653.685069,481.352557 C657.875213,474.187413 660.116467,466.583665 658.84972,458.346158 L655.731497,465.121363 L647.88717,481.791285 L646.668569,480.18274 L650.956125,465.267606 L655.487402,449.767501 L656.121025,441.773814 L654.025954,443.772173 L652.077064,449.036412 L648.422881,460.734581 L645.304658,465.706209 L644.476458,463.220457 L648.081997,448.012838 L648.861552,446.014354 L649.349243,429.929403 L648.130641,422.422984 L646.571529,423.690379 L646.133731,430.368006 L643.405286,446.745443 L641.407627,450.401136 L640.238917,447.915259 L640.628072,433.000125 C641.115762,425.152557 640.774004,417.50002 638.825364,409.896272 L637.461079,411.11413 L637.169214,418.864245 L635.317738,433.194533 L633.271435,436.703984 L631.90715,433.04829 L632.053083,424.810783 L631.127594,408.140861 L629.129936,399.513539 L627.814544,397.758751 L628.057766,410.968012 L625.524147,424.713329 L623.331662,422.617392 L623.672172,412.673886 L622.064416,394.590575 L620.992995,394.102684 L620.359372,394.833897 L620.164795,401.560313 L619.62846,410.382667 L617.48462,412.673511 L616.802353,411.893633 L616.902136,402.925037 L615.343024,390.788265 L612.517041,387.668753 L613.10202,396.198621 L611.835273,406.922005 L610.373574,405.557156 L610.714084,398.83074 L606.57271,384.549241 L605.159781,383.477377 L604.428869,383.477377 L605.305713,389.375251 L605.987981,401.560812 L604.526282,394.834396 L600.238726,382.258771 L599.410526,381.527558 L598.387748,381.3329 L600.775185,387.718041 L599.264717,390.593857 L599.801052,393.859611 C602.675679,406.630144 604.868164,419.49813 606.524689,432.463569 C608.181339,445.03907 607.693399,457.614695 607.109668,470.238985 C606.621978,479.987459 604.868414,489.492112 603.455485,498.99689 L601.311769,508.306761 C598.77815,516.78784 596.585665,525.220379 593.418673,533.457762 C587.036044,550.468833 576.171033,565.140272 562.62622,578.203289 L561.018464,578.983167 L561.992597,573.182872 L567.936678,564.701668 L571.201084,554.709498 L569.057368,555.976768 L565.354416,562.410699 L560.092476,570.258267 L559.556142,568.357362 L565.061801,556.123011 L568.910811,549.835198 L572.370043,540.086724 L570.177558,541.208501 L565.40281,549.445883 L560.530524,556.41612 L559.896901,554.661332 L566.718077,539.112563 L574.513635,523.368762 L574.659567,522.296897 L574.025944,521.322362 L572.466833,521.565684 L568.569054,527.902161 L563.550586,538.089363 L560.675958,541.403782 L560.626067,538.138027 L563.354512,527.219736 L565.352046,523.807739 L572.855364,506.309275 L572.124452,505.140082 L567.836895,512.500133 L563.646752,520.493944 L560.138751,523.759699 L561.7954,513.036315 L567.836895,502.654205 L570.126918,495.196701 L572.027039,485.106952 L570.662754,484.717637 L569.20118,485.984907 L565.741824,494.271204 L557.897622,508.455249 L556.435923,506.992947 L556.679145,503.678403 L563.354138,486.959817 L566.27741,472.044683 L562.184804,481.695579 L556.484318,490.95666 L555.947984,488.422119 L559.261033,473.16571 L563.110168,457.958091 L562.915591,453.766216 L561.259066,454.83808 L558.481852,465.707582 L554.145651,476.577208 L553.268806,474.968663 L555.948607,460.735954 L556.240473,443.042457 L555.217696,446.210633 L554.146274,454.545594 L549.809949,465.463886 L548.494433,466.000442 L548.834943,454.497304 L552.24553,442.652893 L551.563263,435.731445 L550.150334,438.558471 L549.516711,441.921679 L548.688511,445.723615 L547.324226,448.843127 L545.375337,451.767732 L545.715847,439.728288 L547.080131,430.467331 L545.764616,428.273815 L543.913139,434.1229 L541.13605,438.509807 L532.609581,456.349421 C529.540127,463.465901 529.004166,470.923405 528.955397,478.332246 C528.855614,486.715996 529.295907,495.099621 529.491732,503.385918 C529.783597,515.620144 530.125355,527.952073 530.514509,540.283877 C531.002199,552.859378 531.391353,565.483667 531.733111,578.059168 C532.512666,602.430416 533.340991,590.098487 534.071778,614.469735 C535.045911,643.227765 535.923254,672.083248 536.848992,700.841153 C537.238146,713.514232 537.725836,726.089733 537.969058,738.714022 L541.525828,750.899584 L549.90599,765.278661 L549.223723,782.777126 L544.302793,789.844816 L542.646268,796.230083 C543.717689,804.223769 544.790108,812.071337 545.618308,820.065024 L548.980127,827.083925 C557.750192,837.41737 566.276536,847.945722 575.241428,858.230378 L577.385269,868.75873 L568.51779,874.900176 L563.548091,875 L433.167451,875 L422.692092,870.076911 L421.717959,868.078552 L424.495049,857.647654 C433.216344,847.704272 441.353036,837.419616 449.781967,827.281203 L453.387381,818.556303 C454.021004,811.196127 454.946493,803.787287 455.969644,796.476025 L453.97211,789.115849 L449.440833,782.389433 L449.001787,765.42715 L458.648821,748.513532 L460.695124,742.17693 C460.938345,726.335675 461.426036,710.640663 461.863834,694.799408 C462.400168,676.033548 462.886611,657.267813 463.47159,638.501954 C464.202501,615.885494 465.128239,629.777054 465.95644,607.160594 C466.78464,582.984378 467.613089,558.905615 468.392645,534.680735 C469.074912,516.304814 469.659392,497.929019 470.58513,479.553098 C471.267397,466.343962 467.466907,454.207065 461.132923,442.508896 L454.311872,436.562358 L453.726893,438.999445 L457.283663,450.307675 L450.267661,437.780839 L449.927151,431.980544 L447.101168,432.906415 L446.564834,435.051017 L450.121479,450.112394 L452.460146,460.884567 L451.242792,463.760258 C445.298586,456.546449 445.249941,448.40652 444.129252,440.656405 L441.352163,443.58101 L441.741317,449.673791 L447.441803,468.390861 L448.561869,477.798061 L444.323081,472.972675 L439.791928,457.959962 L439.255594,454.158026 L437.891309,452.013424 L435.991189,454.158026 C436.090972,461.274506 438.281087,468.000922 441.204484,474.629884 L444.663716,484.719508 L444.858293,490.617382 L442.373443,489.203869 C438.1833,483.354784 435.69845,476.920729 434.62653,470.04807 L433.018774,465.320014 L431.508306,464.882034 L430.485529,466.051227 C431.801045,473.703764 432.970379,481.453754 437.5503,488.375202 L441.740444,497.002648 L441.790335,507.531 L440.085041,505.922455 L435.21288,498.22113 L434.141459,493.931801 L426.881861,480.771454 L425.371519,480.576797 L424.689251,481.99031 L428.343435,487.741941 L430.292324,492.908601 L430.438257,496.223145 L433.215347,505.142952 C436.918299,510.602097 439.792926,516.256275 440.085166,523.275176 L434.871996,518.352088 L431.997369,511.674461 L425.565971,497.831565 L423.763264,496.759701 L424.786041,503.193631 C429.75574,514.843011 434.14071,526.54118 438.818045,538.190685 L438.718262,539.408542 L436.671959,538.092607 L431.068886,527.564255 L427.560885,521.032746 L425.563227,520.252868 L424.88096,522.495049 L433.943389,540.82218 L439.010502,553.300227 L438.718636,554.71374 L436.86716,553.446345 L433.456572,547.499807 L429.558793,540.578359 L427.268895,539.018603 L426.829849,540.334663 L434.138216,554.908647 L439.595106,568.166572 L437.597573,567.532687 L432.725287,559.100273 L428.291548,553.689917 L430.532802,562.317238 L437.061612,571.870805 L438.523186,577.914797 L436.623065,576.988926 C423.029608,563.877244 412.213241,549.205806 405.928026,532.145945 C400.666087,517.913235 396.622125,503.290461 394.673236,488.229084 C393.162893,475.117402 391.847378,462.00572 392.042204,448.845248 C392.236781,436.513444 394.088507,424.327882 396.281117,412.239774 L400.422491,392.011613 L400.617068,389.720768 L401.883815,382.896898 L404.222482,378.412538 L403.881972,375.634176 L395.112032,389.623314 L394.9661,380.995868 L391.750338,389.477072 L389.9964,399.371789 L389.896617,408.827777 L388.239968,406.780629 L386.583443,400.297909 L387.168421,389.9158 L388.581351,384.554108 L387.461285,382.79932 L385.707347,384.018425 L382.345528,396.9352 L382.245745,409.120762 L382.634899,414.336211 L379.711503,406.829792 L379.175168,397.373804 L377.859652,394.010596 L375.618523,401.955618 L375.276766,409.169426 L376.543513,416.870752 L378.394989,424.230928 L372.986868,417.601966 L373.086651,398.251135 L371.137761,395.375444 L369.091458,400.444651 L367.775943,419.356629 L372.063499,434.807945 L372.599834,436.270247 L370.455993,436.562233 L366.071023,432.126662 L362.904031,414.676862 L362.953922,410.29008 L361.44358,408.486628 L359.299739,414.871894 C358.422895,424.425336 358.617472,433.930114 360.761437,443.23986 L361.832859,449.966401 L359.055645,446.846889 L353.84235,431.980419 L353.696417,425.887638 L353.939638,423.158066 L352.331882,421.695763 L350.967598,422.621634 L350.529799,424.815025 L351.212066,444.165731 L354.525241,451.96451 L356.522899,461.079349 L350.237684,453.573055 L346.778452,445.286884 L345.51158,441.63119 L343.270451,440.559326 L344.19594,449.625376 L349.847781,467.270083 L352.868591,474.532805 L352.868591,481.161768 C346.778327,473.801592 344.585717,465.51542 341.857272,457.472944 L339.226365,458.740215 L339.566875,461.469787 L343.659605,475.458801 L349.993465,492.372419 L351.503807,496.564295 L352.13743,500.463684 L348.532016,498.611443 L344.390641,491.836238 L340.88264,479.991951 L339.372298,476.384922 L337.423408,475.459051 L336.400631,477.116385 L337.619233,480.918196 L340.834869,492.275215 L344.732648,499.147874 L348.874023,513.770648 L346.925133,512.113314 L338.544971,495.345938 L335.085739,491.544127 L333.770223,493.688729 L334.355202,495.19982 L342.394355,513.234466 L349.995086,531.464144 L350.044978,533.462503 L348.583404,532.195233 C341.810998,522.154273 335.08736,512.162103 328.314954,502.218722 C319.788485,489.691885 313.990586,476.238929 310.823593,461.859976 C309.167069,454.15865 307.754139,446.457449 307.754139,438.707334 C307.608207,429.007649 309.800442,419.502871 314.136768,410.485486 C323.637619,390.598599 337.426028,373.246377 354.527486,357.989968 L356.23278,356.479001 L359.886963,349.216404 L362.907648,337.420656 L363.638559,335.276054 L363.102225,334.447512 L361.883623,334.497424 L360.519463,335.617953 L353.064914,350.825573 L352.042137,354.773751 L350.677977,349.99703 L350.532044,345.025277 L349.606555,340.443463 L346.293381,341.662568 L344.198309,349.266316 L343.857799,358.137458 L342.493639,361.25697 L339.083051,345.220683 L335.818646,347.121714 L334.356948,353.653223 L334.016438,364.766421 L333.577392,367.106055 L328.997471,358.722429 L322.858563,371.249141 L317.937632,381.095068 L317.060788,379.291616 L321.104749,362.719273 L321.592439,358.234912 L319.935914,359.599761 C314.673975,366.326177 311.701935,373.783806 310.191467,381.728828 L309.411911,387.187974 L307.0246,392.257181 L305.709084,385.18949 L306.537284,377.488164 L307.950213,369.348235 L305.709084,371.151687 L301.031749,383.191006 L298.985322,397.570083 L297.182615,404.393953 L296.111193,402.63929 L296.403059,393.280755 L298.108353,386.749246 L297.865131,384.604519 L296.842354,384.067963 L295.722288,384.262621 L295.13731,385.28582 L291.434482,399.323623 L289.193228,415.35991 L287.536703,420.477781 L285.928823,418.28439 L285.539669,416.042335 L285.58956,403.905437 L285.004582,398.25126 L283.201874,399.323124 L280.083651,416.285532 L279.547317,434.125146 L278.86505,435.441205 L277.208525,434.173935 L277.158633,429.202182 L277.304566,416.967831 L274.771072,414.872018 L274.040161,417.893952 L273.309249,431.200666 L274.770948,442.2652 L275.307282,446.1158 L274.918128,449.040405 L271.215175,438.512053 L270.678841,433.5403 L269.217267,431.931755 L267.852982,439.535627 L267.902874,447.285617 L268.585141,454.49955 L268.779718,462.688269 L266.197455,454.158276 L265.320611,449.67404 L263.566548,447.626892 L262.932925,450.307675 L266.733291,469.853413 L267.707424,478.334492 L262.006938,468.049836 L261.130093,470.243352 L263.663587,482.818852 L263.858165,488.082966 L258.839696,473.265285 C256.257433,463.955539 253.821353,454.548215 251.726281,445.092226 C249.192787,433.930239 248.267049,422.622009 248.75424,411.216325 C249.193286,397.178522 254.211131,384.359201 262.250284,372.319882 C268.779095,362.522619 276.867017,353.846508 286.221686,346.096518 C298.304801,336.104347 311.264884,327.086962 325.832848,320.165514 L332.653899,317.338487 C348.050188,311.538192 364.031081,307.687467 380.401753,304.860441 L390.048786,302.813292 L393.897796,299.498749 L386.930563,300.42462 L378.988823,303.154192 L383.325024,298.474925 L376.552618,299.644118 L370.170114,302.081205 L373.190799,298.961693 L377.380943,296.085878 L367.100535,299.107936 L360.035889,303.68975 L356.43035,304.469628 L365.103002,295.111093 L357.161262,298.035573 L350.68122,303.153568 L343.957458,308.027868 L344.200679,304.762114 L350.388481,299.351632 L357.453127,293.892487 L354.870864,293.746494 L339.620883,305.493452 L336.941082,309.051692 L335.966949,306.663269 L339.085172,300.667942 L344.200929,294.428918 L341.618666,294.039603 L332.556361,302.374564 L329.04836,308.808619 L326.904644,311.733099 L326.271021,307.83371 L331.971632,298.036446 L334.407713,293.990939 L329.438013,296.038087 L320.132113,309.003526 L317.744677,313.487887 L314.918818,314.803822 L315.455153,307.541224 L320.132487,299.011356 L320.132487,296.232994 L317.745051,297.549054 L311.362422,305.104137 L306.149128,312.65922 L300.253815,318.313273 L302.056522,311.538192 L304.443834,305.835226 L307.951835,300.181173 L305.077332,300.37583 L292.945448,319.044237 L289.778456,323.38223 L292.068479,311.927882 L294.407147,307.394732 L294.50693,304.031524 L291.242524,306.614854 C287.588341,312.951456 284.08034,319.190479 282.082806,326.111802 L280.085148,330.79107 L277.307934,333.03325 L280.085148,320.408961 L281.887855,316.314664 L281.059655,315.047393 L279.500544,315.33938 L269.658683,331.521909 L267.904745,337.907175 L266.199451,342.488865 L264.932704,340.929109 L266.199451,332.691726 L266.930363,329.425972 L266.004874,327.525066 L264.202167,328.499601 L262.984813,331.619113 L256.066224,350.092487 L255.092091,351.457211 L253.679162,349.410063 L254.945909,342.293708 L254.945909,340.100317 L254.069064,339.417768 L252.997643,339.709754 L250.95134,343.657808 C249.489642,350.384349 246.956148,356.915733 247.345926,363.983423 L243.984107,372.025899 L243.350484,365.835665 L243.496417,359.450399 L240.962799,361.64379 L239.257505,371.489717 L238.965639,376.558924 L237.309114,381.725709 L236.968604,375.291654 L233.850381,393.375089 L232.437452,391.181698 C231.803829,380.214617 231.609252,369.247662 233.606162,358.378035 C236.042243,344.730171 240.573395,331.715943 248.466366,319.676624 C259.331502,303.104155 274.776436,290.967383 293.388361,281.998787 C306.786867,275.516067 320.721457,270.251829 335.386835,266.401228 C342.500375,264.500198 349.954799,263.427959 357.311934,262.599292 C372.610685,260.844629 388.006849,260.308447 403.354369,260.308447 L422.307303,257.432632 L425.035748,254.508027 L413.537363,255.433898 L402.038853,258.163471 L403.744147,256.213776 L412.806452,252.655661 L415.778617,252.119105 L418.068515,250.461771 L415.047706,249.097047 L396.776914,254.458739 L391.320024,255.433274 L405.352028,247.244556 L402.428631,246.318685 L394.243295,248.707108 L384.645031,252.703951 L381.478163,253.240507 L389.712143,246.367848 L391.173841,245.393313 L391.368418,243.931135 L389.760663,243.345915 L386.398844,244.661975 L374.072134,252.217058 L371.099968,254.117963 L371.879524,251.047241 L379.723851,244.808217 L379.823634,243.394704 L378.752213,243.005389 L376.413545,243.443369 L372.174633,245.831792 L358.87354,254.117963 L355.31677,255.434023 L362.235359,245.978034 L365.304813,243.199672 L365.548035,241.201313 L363.355549,241.101489 L349.956919,251.922326 L341.771583,257.381472 L344.305202,250.313906 L348.495221,246.901909 L350.687831,245.049668 L350.882408,243.538701 L349.274527,243.050809 L347.130811,244.074009 L334.365554,255.430904 L332.173069,257.283145 L331.58809,257.233233 L331.977245,254.698692 L336.167263,249.190757 L335.387708,246.899912 L334.218998,247.191899 L327.105582,254.113222 L321.941057,259.621157 L317.945864,260.937216 L320.479358,254.941889 L324.182311,249.531533 L321.989701,249.092305 L319.261256,251.285696 L310.491316,262.106534 L305.180607,265.128592 L305.423829,262.593926 L308.736879,257.914659 L310.442172,254.94139 L309.711261,253.62533 L307.957198,253.771323 L307.568044,254.210551 L294.120769,269.466835 L293.049348,269.954726 L292.854771,267.1277 L296.119176,262.399768 L295.582842,261.034919 L293.926192,261.084831 L285.253665,271.271909 L281.404655,274.927602 L281.94099,271.271909 L284.133475,269.322214 L282.087172,271.418152 L278.968949,272.783 L270.247653,280.776687 L265.277954,285.066016 L266.106154,282.531475 C273.560578,274.001482 280.820176,265.422824 288.51832,257.087863 L301.819537,244.658606 C312.148589,235.056374 323.939339,227.062563 336.753365,220.4336 C344.500153,216.436757 352.929085,213.755974 361.845332,212.488703 C372.759112,210.977612 383.721538,210.197734 394.684087,210.782705 C404.477304,211.220684 414.319164,211.854569 423.820016,213.463488 L438.38798,216.583 L452.858406,219.897544 L458.558892,219.409652 L443.84487,215.02287 L451.494246,212.975721 L447.791293,210.099906 L436.633917,210.099906 L432.979734,210.587798 L442.285759,205.859866 L426.256096,206.297845 L431.177026,204.201907 L434.100423,202.203548 L434.200206,200.643792 L432.738508,199.912579 L427.379031,201.277428 L419.145051,203.811968 L416.075472,203.861881 L426.502062,197.476614 L423.091474,196.550743 L409.790382,201.181347 L405.356643,202.838556 L410.862177,196.940682 L416.855028,193.138746 C412.470058,192.018218 411.982867,192.164211 399.363792,198.744134 L399.752946,197.086925 L405.502201,192.748807 L408.230646,190.701659 L403.699494,189.483801 L396.098763,193.334402 L390.788055,196.990095 L390.496189,195.137854 L394.686333,190.361133 L396.440271,188.216406 L391.957887,188.070413 L383.187823,193.285862 L375.294852,198.793797 L378.608026,193.870833 L381.67748,188.752838 L379.095217,189.094736 L367.109516,197.91709 L363.455333,200.841569 L361.262848,201.572783 L366.281316,193.725214 L363.650284,192.994001 L355.659775,197.185751 L346.792422,203.327321 L344.502398,203.912542 L345.769145,201.670361 C355.07517,191.629402 366.086365,183.68438 380.410733,179.833779 C389.911585,177.299113 399.704676,175.446997 409.741488,175.593115 C421.191229,175.643027 431.910058,177.981538 442.385417,181.68602 C455.686509,186.511406 467.428615,193.3354 478.001387,202.011511 L480.388699,203.66872 L482.776135,202.937507 L490.42551,209.566469 L489.889176,206.836897 L483.847681,199.086906 L482.142387,193.140244 L491.107279,199.623088 L490.230434,196.990969 L486.332655,192.019216 L483.60421,182.368195 L491.545826,189.094736 L491.886335,186.608859 L486.819223,180.223593 L486.1856,173.692084 L490.521801,178.127656 L492.763055,178.712876 L492.957632,176.714517 L488.767489,171.206582 L487.451973,163.017864 L490.277831,164.772652 L494.370561,167.989617 L496.952824,166.381072 L496.270557,164.285134 L493.688294,159.264717 L492.080414,153.220725 L497.878438,156.535144 L496.807016,150.881092 L494.273398,145.909339 L494.273398,143.22843 L495.296175,143.278342 L498.219447,144.886887 L498.950358,141.572344 L500.996786,125 L503.530279,136.893076 L502.019937,140.451316 L502.604916,144.301916 L506.600232,142.254768 L507.331144,142.888653 L504.456516,149.956343 L501.630658,154.879307 L502.410214,156.29282 L504.066739,156.192996 L508.549247,153.609666 L508.437115,153.564995 Z M364.84055,345.095694 L369.74677,343.784976 L374.279067,333.904004 L373.811364,331.937799 L371.755502,332.239796 L364.84055,345.095694 Z M417.406699,263.045514 L434.237451,262.111304 L435.349282,260.569318 L434.189164,259.681758 L418.61597,261.644318 L417.406699,263.045514 Z M448.507177,222.090849 L449.99294,223.679486 L463.017801,228.866089 L464.057416,228.165132 L448.507177,222.090849 Z M481.75616,217.188995 L485.727811,223.403469 L486.801974,224.618301 L489.325179,225.132656 L489.420873,223.263636 L486.2436,218.170574 L484.18762,216.254904 L481.75616,217.188995 Z M511.819976,225.296112 L513.502033,224.595156 L517.847488,217.025658 L517.474282,216.2314 L515.838995,216.091447 L510.745813,224.268481 L511.819976,225.296112 Z M457.923026,411.034988 L458.997189,410.707237 L463.856639,405.427333 L463.435586,403.558313 L461.940371,403.698266 L457.221112,408.464294 L457.08116,410.473505 L457.923026,411.034988 Z M539.648023,229.123026 L551.37799,221.833911 L538.220096,224.730921 L539.648023,229.123026 Z M419.897189,366.024222 L417.794557,364.529007 L410.131519,369.528648 L410.271471,370.883672 L411.766687,371.116926 L419.897189,366.024222 Z M579.656758,369.663876 L578.675897,370.17823 L578.62805,371.065789 L587.552572,375.551435 L588.721232,374.570574 L588.441328,373.776316 L580.264414,369.664474 L579.656758,369.663876 Z M420.602691,303.061184 L420.462739,302.126974 L412.426017,300.304725 L411.818361,301.145634 L412.565969,302.360467 L419.995275,303.762261 L420.602691,303.061184 Z M559.078589,264.961842 L557.909928,264.260885 L550.854426,268.69988 L551.180981,270.054904 L552.208493,270.42811 L558.936962,265.662081 L559.078589,264.961842 Z M613.971471,334.460945 L622.755801,341.376376 L621.821591,337.778529 L613.971471,334.460945 Z M544.168122,412.37512 L542.345754,408.216627 L539.589055,405.927033 L539.449103,409.47823 L542.205921,413.40311 L543.280084,413.450957 L544.168122,412.37512 Z M453.875897,416.99689 L451.820036,420.641388 L453.361902,423.912201 L454.763696,423.725598 L453.875897,416.99689 Z M408.295574,323.620694 L401.847488,326.797967 L401.98744,327.778828 L402.875,328.293182 L408.902512,325.536364 L409.042464,324.508852 L408.295574,323.620694 Z M595.80933,302.365191 L595.155024,301.570933 L588.286364,303.346531 L588.286364,304.374043 L589.127273,304.888397 L595.341746,303.25311 L595.80933,302.365191 Z M448.330323,269.073445 L448.234629,268.465789 L442.814414,264.961364 L441.833553,265.382416 L441.506998,266.269976 L447.020634,269.727632 L448.330323,269.073445 Z M523.216986,244.888278 L524.291148,244.888278 L527.608732,240.26244 L526.907775,239.561483 L522.51567,243.2061 L522.51567,244.186962 L523.216986,244.888278 Z M607.074761,299.879426 L615.298445,301.795215 L607.074761,299.879426 Z M472.701555,238.584689 L468.215909,235.594258 L467.375,236.762919 L471.486842,239.286124 L472.701555,238.584689 Z" id="path34"></path>
        </g>
    </g>
</svg>